<svg width="286" height="191" viewBox="0 0 286 191" fill="none" xmlns="http://www.w3.org/2000/svg">
<path d="M281.538 0L238.502 68.4677C264.212 77.9693 285.171 102.282 285.171 129.949C285.171 169.073 248.003 190.033 202.451 190.033C180.374 190.033 156.899 178.854 149.074 164.043C146.28 159.013 145.721 153.982 147.398 149.232C152.707 134.979 170.593 141.127 191.273 148.114C219.778 157.615 250.239 168.235 264.212 131.346C268.124 111.784 251.077 90.8245 228.721 84.3969C227.603 84.1174 226.205 83.5585 225.088 83.5585L265.05 19.8417H181.771C172.549 19.8417 169.475 26.8281 169.475 26.8281H169.196V12.0168C169.196 5.30973 174.505 0 180.933 0H281.538ZM202.451 186.679C228.441 186.679 247.165 171.868 257.784 149.232C240.737 168.235 214.747 159.572 190.434 151.467C171.152 144.76 154.105 139.171 150.192 150.629C148.795 154.262 149.354 158.174 151.59 162.366C157.738 174.104 178.697 186.679 202.451 186.679Z" fill="#F9F8F4"/>
<path d="M71.8212 0C111.505 0 143.642 40.8012 143.642 94.178C143.642 147.555 111.505 190.033 71.8212 190.033C32.1379 190.033 0 147.555 0 94.178C0 40.8012 32.1379 0 71.8212 0ZM71.8212 186.679C109.269 186.679 123.242 145.599 123.242 94.178C123.242 42.7574 109.269 3.35351 71.8212 3.35351C34.0941 3.35351 20.4006 42.7574 20.4006 94.178C20.4006 145.599 34.0941 186.679 71.8212 186.679Z" fill="#F9F8F4"/>
</svg>
